<svg width="204" height="33" viewBox="0 0 204 33" fill="none" xmlns="http://www.w3.org/2000/svg">
<path d="M11.9004 18.408C11.9857 18.2373 12.0924 18.152 12.2204 18.152C12.3697 18.152 12.487 18.2587 12.5724 18.472C12.935 19.432 12.807 20.4347 12.1884 21.48C11.5697 22.5253 10.8337 23.3573 9.98038 23.976C8.89238 24.744 7.70838 25.1707 6.42838 25.256C5.14838 25.3627 4.10304 25.16 3.29238 24.648C2.52438 24.2427 1.87371 23.56 1.34038 22.6C0.828375 21.64 0.561708 20.5307 0.540375 19.272C0.519042 17.672 0.807042 16.072 1.40438 14.472C2.00171 12.8507 2.76971 11.4427 3.70837 10.248C4.66838 9.05333 5.67104 8.02933 6.71638 7.176C7.76171 6.30133 8.75371 5.68267 9.69238 5.32C11.6337 4.57333 13.0737 4.60533 14.0124 5.416C14.887 6.16267 15.4524 6.94133 15.7084 7.752C15.9857 8.648 15.8897 9.58667 15.4204 10.568C15.1857 11.0587 14.759 12.1147 14.1404 13.736C14.0124 14.0987 13.7777 14.1627 13.4364 13.928C12.4977 13.3093 12.2417 12.2853 12.6684 10.856C12.7537 10.5787 12.871 10.248 13.0204 9.864C13.191 9.45867 13.3297 9.11733 13.4364 8.84C13.543 8.54133 13.639 8.24266 13.7244 7.944C13.8097 7.624 13.8417 7.35733 13.8204 7.144C13.8204 6.90933 13.7457 6.71733 13.5964 6.568C13.2977 6.22667 12.647 6.26933 11.6444 6.696C10.663 7.10133 9.52171 7.88 8.22038 9.032C6.94038 10.1627 5.85238 11.4747 4.95638 12.968C4.06038 14.44 3.45238 15.9547 3.13238 17.512C2.81238 19.048 2.74838 20.3493 2.94038 21.416C3.13238 22.4613 3.49504 23.208 4.02838 23.656C5.05238 24.488 6.31104 24.4133 7.80438 23.432C9.31904 22.4507 10.6844 20.776 11.9004 18.408ZM17.2096 19.528C16.719 21 16.6123 22.2053 16.8896 23.144C17.1883 24.0613 17.775 24.5413 18.6496 24.584C19.8443 24.648 20.9963 24.232 22.1056 23.336C23.215 22.4187 24.1856 21.32 25.0176 20.04C25.231 19.72 25.4123 19.7307 25.5616 20.072C25.647 20.2213 25.6363 20.4987 25.5296 20.904C25.4443 21.288 25.2736 21.672 25.0176 22.056C24.335 23.0587 23.4176 23.88 22.2656 24.52C21.135 25.16 19.9616 25.4907 18.7456 25.512C16.7403 25.5333 15.407 24.712 14.7456 23.048C14.0843 21.384 14.287 19.5173 15.3536 17.448C16.335 15.4853 17.519 14.0667 18.9056 13.192C20.3136 12.296 21.4443 12.0933 22.2976 12.584C23.1083 13.0747 23.7376 13.6293 24.1856 14.248C24.5056 14.5893 24.5696 15.208 24.3776 16.104C24.207 17 23.8016 17.832 23.1616 18.6C22.607 19.2613 22.0203 19.7627 21.4016 20.104C20.8043 20.4453 20.1323 20.584 19.3856 20.52C18.6603 20.4347 17.935 20.104 17.2096 19.528ZM17.4976 18.824C18.671 19.5493 19.9403 19.016 21.3056 17.224C21.839 16.5413 22.2336 15.8587 22.4896 15.176C22.767 14.472 22.799 14.0347 22.5856 13.864C22.351 13.672 21.9456 13.736 21.3696 14.056C20.815 14.376 20.1856 14.92 19.4816 15.688C18.799 16.456 18.223 17.32 17.7536 18.28C17.6256 18.536 17.5403 18.7173 17.4976 18.824ZM29.0596 18.312C31.4703 17.4373 33.753 15.72 35.9076 13.16C36.313 12.6693 36.633 12.6373 36.8676 13.064C37.1236 13.5973 37.0703 14.1947 36.7076 14.856C36.089 15.944 35.3316 16.872 34.4356 17.64C33.561 18.408 32.313 19.1333 30.6916 19.816C30.7556 21.1173 30.9903 22.1947 31.3956 23.048C31.801 23.88 32.313 24.328 32.9316 24.392C33.529 24.456 34.2116 24.04 34.9796 23.144C35.7476 22.248 36.409 21.224 36.9636 20.072C37.0703 19.88 37.177 19.784 37.2836 19.784C37.4116 19.7627 37.5183 19.848 37.6036 20.04C37.817 20.552 37.689 21.2027 37.2196 21.992C35.9183 24.2533 34.329 25.3733 32.4516 25.352C31.2356 25.3307 30.2436 24.808 29.4756 23.784C28.729 22.76 28.3663 21.224 28.3876 19.176C28.3876 18.8987 28.4196 18.7173 28.4836 18.632C28.569 18.5253 28.761 18.4187 29.0596 18.312ZM29.6356 13.096C29.9983 14.0133 29.945 14.9413 29.4756 15.88C29.241 16.3707 28.8783 17.0213 28.3876 17.832C27.9183 18.6427 27.3956 19.6027 26.8196 20.712C26.265 21.8213 25.625 23.2507 24.8996 25C24.857 25.128 24.7716 25.2027 24.6436 25.224C24.537 25.2453 24.4303 25.192 24.3236 25.064C23.769 24.424 23.7583 23.2507 24.2916 21.544C24.7823 19.944 25.3156 18.568 25.8916 17.416C26.4676 16.264 27.4276 14.7813 28.7716 12.968C29.1343 12.4987 29.4223 12.5413 29.6356 13.096ZM42.9536 24.872C45.6203 24.7013 47.647 23.144 49.0336 20.2C49.1403 19.9867 49.2576 19.8907 49.3856 19.912C49.5136 19.9333 49.599 20.0293 49.6416 20.2C49.791 20.84 49.6523 21.544 49.2256 22.312C48.0736 24.4027 46.175 25.544 43.5296 25.736C41.5243 25.864 40.0203 25.4693 39.0176 24.552C38.399 23.9973 38.0363 23.2827 37.9296 22.408C36.223 25.5227 34.6656 28.712 33.2576 31.976C33.1083 32.3173 32.927 32.3387 32.7136 32.04C32.1803 31.3147 32.1696 30.1413 32.6816 28.52C33.151 27.0053 34.399 24.3173 36.4256 20.456C38.4736 16.5733 40.0096 13.9493 41.0336 12.584C41.3536 12.1573 41.6096 12.168 41.8016 12.616C41.951 13.0213 42.015 13.5013 41.9936 14.056C43.935 12.3707 45.4923 12.1467 46.6656 13.384C47.9456 14.7493 47.8283 17.1173 46.3136 20.488C45.3323 22.6427 44.2123 24.104 42.9536 24.872ZM39.7216 19.208C39.295 20.2533 39.071 21.192 39.0496 22.024C39.0283 22.856 39.231 23.4747 39.6576 23.88C40.1483 24.2853 40.8416 24.0293 41.7376 23.112C42.6336 22.1733 43.4763 20.904 44.2656 19.304C44.8843 18.024 45.2683 16.8187 45.4176 15.688C45.5883 14.5573 45.471 13.896 45.0656 13.704C44.6816 13.512 44.0523 13.7787 43.1776 14.504C42.3243 15.2293 41.535 16.1893 40.8096 17.384C40.3403 18.152 39.9776 18.76 39.7216 19.208ZM51.6471 19.528C51.1565 21 51.0498 22.2053 51.3271 23.144C51.6258 24.0613 52.2125 24.5413 53.0871 24.584C54.2818 24.648 55.4338 24.232 56.5431 23.336C57.6525 22.4187 58.6231 21.32 59.4551 20.04C59.6685 19.72 59.8498 19.7307 59.9991 20.072C60.0845 20.2213 60.0738 20.4987 59.9671 20.904C59.8818 21.288 59.7111 21.672 59.4551 22.056C58.7725 23.0587 57.8551 23.88 56.7031 24.52C55.5725 25.16 54.3991 25.4907 53.1831 25.512C51.1778 25.5333 49.8445 24.712 49.1831 23.048C48.5218 21.384 48.7245 19.5173 49.7911 17.448C50.7725 15.4853 51.9565 14.0667 53.3431 13.192C54.7511 12.296 55.8818 12.0933 56.7351 12.584C57.5458 13.0747 58.1751 13.6293 58.6231 14.248C58.9431 14.5893 59.0071 15.208 58.8151 16.104C58.6445 17 58.2391 17.832 57.5991 18.6C57.0445 19.2613 56.4578 19.7627 55.8391 20.104C55.2418 20.4453 54.5698 20.584 53.8231 20.52C53.0978 20.4347 52.3725 20.104 51.6471 19.528ZM51.9351 18.824C53.1085 19.5493 54.3778 19.016 55.7431 17.224C56.2765 16.5413 56.6711 15.8587 56.9271 15.176C57.2045 14.472 57.2365 14.0347 57.0231 13.864C56.7885 13.672 56.3831 13.736 55.8071 14.056C55.2525 14.376 54.6231 14.92 53.9191 15.688C53.2365 16.456 52.6605 17.32 52.1911 18.28C52.0631 18.536 51.9778 18.7173 51.9351 18.824ZM64.0091 15.912C64.7558 15.0373 65.6305 14.2373 66.6331 13.512C67.6358 12.7653 68.4145 12.4027 68.9691 12.424C69.5025 12.4453 69.8971 12.7973 70.1531 13.48C70.4091 14.1413 70.4305 14.8347 70.2171 15.56C71.0491 14.7493 71.9131 14.0453 72.8091 13.448C73.7265 12.8507 74.4411 12.5627 74.9531 12.584C75.5078 12.6053 75.8598 13 76.0091 13.768C76.1585 14.536 76.0625 15.3147 75.7211 16.104C75.5078 16.6373 75.0171 17.5227 74.2491 18.76C73.4811 19.976 72.9905 20.808 72.7771 21.256C72.3505 22.1733 72.2118 22.952 72.3611 23.592C72.5105 24.232 72.8838 24.5413 73.4811 24.52C74.5265 24.4987 75.8598 23.0373 77.4811 20.136C77.6731 19.816 77.8651 19.7947 78.0571 20.072C78.1425 20.1573 78.1531 20.4347 78.0891 20.904C78.0465 21.352 77.9398 21.7467 77.7691 22.088C77.2998 23.0267 76.6065 23.8373 75.6891 24.52C74.7718 25.1813 73.8651 25.512 72.9691 25.512C71.6038 25.512 70.6651 25.032 70.1531 24.072C69.6625 23.112 69.7265 21.9813 70.3451 20.68C70.6651 19.9547 71.1665 19.048 71.8491 17.96C72.5318 16.872 73.0758 15.9973 73.4811 15.336C73.8865 14.6747 74.0251 14.3227 73.8971 14.28C73.7905 14.2373 73.6091 14.2693 73.3531 14.376C73.1185 14.4613 72.7345 14.696 72.2011 15.08C71.6891 15.464 71.1131 15.976 70.4731 16.616C68.4678 18.6213 66.6118 21.5333 64.9051 25.352C64.6918 25.7787 64.4465 25.832 64.1691 25.512C63.3371 24.7867 63.3158 23.4427 64.1051 21.48C64.3825 20.7547 64.9051 19.784 65.6731 18.568C66.4411 17.3307 67.0598 16.3067 67.5291 15.496C68.0198 14.6853 68.1691 14.248 67.9771 14.184C67.8491 14.12 67.6038 14.184 67.2411 14.376C66.8785 14.5467 66.3985 14.8773 65.8011 15.368C65.2251 15.8373 64.6171 16.424 63.9771 17.128C62.3771 18.856 60.8091 21.5333 59.2731 25.16C59.1238 25.5013 58.9211 25.5547 58.6651 25.32C57.9398 24.68 57.8331 23.5813 58.3451 22.024C58.6865 21 59.3585 19.528 60.3611 17.608C61.3851 15.6667 62.3878 13.96 63.3691 12.488C63.6038 12.1253 63.8278 12.1253 64.0411 12.488C64.5531 13.3413 64.5425 14.4827 64.0091 15.912ZM87.9589 25.48C86.7855 25.48 86.0069 25.032 85.6229 24.136C85.2602 23.2187 85.3242 22.1093 85.8149 20.808C86.1989 19.72 86.8175 18.3867 87.6709 16.808C88.5242 15.208 89.2709 13.9493 89.9109 13.032C90.1882 12.648 90.4442 12.584 90.6789 12.84C90.9562 13.1387 91.1055 13.5867 91.1269 14.184C91.1482 14.7813 90.9882 15.496 90.6469 16.328C90.4762 16.6693 90.0495 17.4693 89.3669 18.728C88.6842 19.9867 88.2149 20.9147 87.9589 21.512C87.5749 22.4507 87.4042 23.1973 87.4469 23.752C87.4895 24.3067 87.7669 24.5733 88.2789 24.552C88.9615 24.5307 89.6975 24.0827 90.4869 23.208C91.2762 22.3333 91.9269 21.32 92.4389 20.168C92.6095 19.848 92.7802 19.848 92.9509 20.168C93.2069 20.6587 93.1322 21.32 92.7269 22.152C92.2575 23.1333 91.5749 23.9333 90.6789 24.552C89.7829 25.1707 88.8762 25.48 87.9589 25.48ZM84.1829 20.2C84.1189 21.672 83.5962 22.9413 82.6149 24.008C81.6335 25.0533 80.3642 25.576 78.8069 25.576C77.4842 25.576 76.6202 25.128 76.2149 24.232C75.8095 23.336 75.8629 22.1947 76.3749 20.808C76.6949 19.8267 77.3562 18.4827 78.3589 16.776C79.3829 15.0693 80.0869 13.8213 80.4709 13.032C80.5135 12.9253 80.5882 12.8293 80.6949 12.744C80.8229 12.6587 80.9402 12.6373 81.0469 12.68C81.1962 12.744 81.3455 12.936 81.4949 13.256C81.6655 13.576 81.7722 13.896 81.8149 14.216C81.9215 14.9413 81.5802 16.0187 80.7909 17.448C80.9189 17.4053 81.1322 17.3627 81.4309 17.32C82.0709 17.2773 82.6149 17.4907 83.0629 17.96C83.1482 18.0453 83.2762 18.184 83.4469 18.376C83.6389 18.5467 83.7775 18.6853 83.8629 18.792C83.9482 18.8987 84.0229 19.08 84.0869 19.336C84.1722 19.5707 84.2042 19.8587 84.1829 20.2ZM82.2949 20.264C82.4655 20.4347 82.7749 20.5627 83.2229 20.648C83.6922 20.712 84.1509 20.7013 84.5989 20.616C84.6842 20.5947 84.7375 20.616 84.7589 20.68C84.7802 20.744 84.7589 20.7973 84.6949 20.84C84.5242 21.096 84.0869 21.2027 83.3829 21.16C82.6789 21.096 82.1135 20.9147 81.6869 20.616C80.9829 20.104 80.6202 19.5067 80.5989 18.824C80.2789 18.888 80.0122 18.984 79.7989 19.112C78.7109 21.032 78.1669 22.3973 78.1669 23.208C78.1669 24.1253 78.5082 24.584 79.1909 24.584C79.7882 24.584 80.4175 24.1893 81.0789 23.4C81.7615 22.6107 82.1882 21.5973 82.3589 20.36C82.4869 19.4213 82.5402 18.8987 82.5189 18.792C82.4762 18.6 82.4015 18.472 82.2949 18.408C82.1882 18.344 82.0815 18.3547 81.9749 18.44C81.8895 18.5253 81.8255 18.6533 81.7829 18.824C81.6549 19.4 81.8255 19.88 82.2949 20.264ZM101.544 19.176L101.608 18.568C101.63 18.1627 101.683 17.7573 101.768 17.352C101.854 16.9253 101.96 16.68 102.088 16.616C103.88 15.6133 105.811 15.112 107.88 15.112C109.331 15.112 110.483 15.4853 111.336 16.232C112.211 16.9573 112.638 17.8853 112.616 19.016C112.595 20.1893 112.179 21.2347 111.368 22.152C110.579 23.048 109.619 23.7307 108.488 24.2C107.358 24.648 106.312 24.9787 105.352 25.192C104.414 25.4267 103.667 25.544 103.112 25.544C102.195 25.544 101.32 25.2347 100.488 24.616C99.6564 23.9973 99.2404 23.2613 99.2404 22.408C99.2404 21.256 100.051 19.08 101.672 15.88C103.315 12.6587 104.958 9.81067 106.6 7.336C106.942 7.272 107.23 7.24 107.464 7.24C108.126 7.24 108.456 7.48533 108.456 7.976C108.456 8.36 108.232 9.01067 107.784 9.928C107.336 10.824 106.654 12.0507 105.736 13.608C104.819 15.1653 104.222 16.2107 103.944 16.744C102.11 20.1147 101.192 22.216 101.192 23.048C101.192 23.5173 101.459 23.752 101.992 23.752C102.398 23.752 103.07 23.6347 104.008 23.4C104.947 23.1653 105.96 22.8453 107.048 22.44C108.136 22.0347 109.086 21.4907 109.896 20.808C110.707 20.1253 111.112 19.4213 111.112 18.696C111.112 17.416 110.206 16.776 108.392 16.776C106.387 16.7547 104.104 17.5547 101.544 19.176ZM112.328 7.88L110.376 8.2C109.395 8.34933 108.659 8.424 108.168 8.424C107.294 8.424 106.504 8.24267 105.8 7.88C105.096 7.496 104.744 7.016 104.744 6.44C104.744 6.26933 104.84 6.184 105.032 6.184C105.118 6.184 105.256 6.19467 105.448 6.216C105.662 6.216 105.822 6.216 105.928 6.216C106.974 6.216 108.616 6.06667 110.856 5.768C113.096 5.448 114.462 5.288 114.952 5.288C115.699 5.288 116.424 5.43733 117.128 5.736C117.832 6.01333 118.184 6.472 118.184 7.112C118.184 7.304 118.067 7.4 117.832 7.4C117.726 7.4 117.566 7.4 117.352 7.4C117.139 7.37867 116.979 7.368 116.872 7.368C115.976 7.34667 114.462 7.51733 112.328 7.88ZM124.46 18.12C124.246 18.3547 123.958 18.4933 123.596 18.536C123.233 19.9867 122.582 21.384 121.644 22.728C120.705 24.0507 119.67 24.904 118.54 25.288C116.982 25.8 115.638 25.3307 114.508 23.88C113.846 22.8773 113.569 21.768 113.676 20.552C113.804 19.3147 114.252 18.024 115.02 16.68C115.66 15.528 116.438 14.568 117.356 13.8C118.273 13.0107 119.19 12.584 120.108 12.52C120.982 12.456 121.708 12.8187 122.284 13.608C122.39 13.7573 122.572 13.9707 122.828 14.248C123.084 14.504 123.276 14.7173 123.404 14.888C123.532 15.0587 123.638 15.3467 123.724 15.752C123.809 16.136 123.83 16.5947 123.788 17.128C123.766 17.2133 123.756 17.3413 123.756 17.512C123.756 17.6613 123.745 17.7787 123.724 17.864C123.788 17.864 123.884 17.8533 124.012 17.832C124.161 17.8107 124.278 17.8 124.364 17.8C124.598 17.8 124.63 17.9067 124.46 18.12ZM121.708 17.256C121.964 16.232 122.049 15.4427 121.964 14.888C121.921 14.568 121.825 14.3653 121.676 14.28C121.548 14.1733 121.409 14.1947 121.26 14.344C121.132 14.472 121.046 14.6853 121.004 14.984C120.833 15.9013 121.068 16.6587 121.708 17.256ZM121.484 18.12C121.292 18.0347 121.089 17.9067 120.876 17.736C120.492 17.4587 120.15 17.064 119.852 16.552C119.574 16.0187 119.425 15.4747 119.404 14.92C118.401 15.7733 117.58 16.776 116.94 17.928C116.278 19.144 115.841 20.3813 115.628 21.64C115.414 22.8773 115.521 23.6667 115.948 24.008C116.417 24.392 117.078 24.2853 117.932 23.688C118.806 23.0907 119.617 22.088 120.364 20.68C120.833 19.8053 121.206 18.952 121.484 18.12ZM133.507 24.584C134.68 24.52 136.046 23.048 137.603 20.168C137.774 19.848 137.955 19.8373 138.147 20.136C138.403 20.5413 138.307 21.2133 137.859 22.152C137.411 23.0693 136.728 23.8693 135.811 24.552C134.915 25.2347 134.019 25.576 133.123 25.576C131.544 25.576 130.627 25.0533 130.371 24.008C130.115 22.9627 130.638 21.0427 131.939 18.248L131.683 18.216C129.123 23.08 126.947 25.512 125.155 25.512C124.622 25.512 124.206 25.3947 123.907 25.16C123.587 24.9467 123.406 24.648 123.363 24.264C123.32 23.88 123.331 23.4853 123.395 23.08C123.459 22.6747 123.576 22.2587 123.747 21.832C123.939 21.32 124.302 20.9893 124.835 20.84C125.198 20.7333 125.368 20.7973 125.347 21.032C125.326 21.096 125.294 21.1707 125.251 21.256C124.995 21.7253 124.803 22.2267 124.675 22.76C124.547 23.272 124.515 23.7093 124.579 24.072C124.643 24.4133 124.803 24.584 125.059 24.584C125.486 24.584 126.136 24.04 127.011 22.952C127.886 21.864 129.155 20.0187 130.819 17.416L134.179 12.2C134.328 11.9867 134.52 11.8587 134.755 11.816C134.99 11.7733 135.171 11.8373 135.299 12.008C135.832 12.6693 135.864 13.64 135.395 14.92L132.867 21.704C132.099 23.688 132.312 24.648 133.507 24.584ZM147.178 18.12C146.965 18.3547 146.677 18.4933 146.314 18.536C145.952 19.9867 145.301 21.384 144.362 22.728C143.424 24.0507 142.389 24.904 141.258 25.288C139.701 25.8 138.357 25.3307 137.226 23.88C136.565 22.8773 136.288 21.768 136.394 20.552C136.522 19.3147 136.97 18.024 137.738 16.68C138.378 15.528 139.157 14.568 140.074 13.8C140.992 13.0107 141.909 12.584 142.826 12.52C143.701 12.456 144.426 12.8187 145.002 13.608C145.109 13.7573 145.29 13.9707 145.546 14.248C145.802 14.504 145.994 14.7173 146.122 14.888C146.25 15.0587 146.357 15.3467 146.442 15.752C146.528 16.136 146.549 16.5947 146.506 17.128C146.485 17.2133 146.474 17.3413 146.474 17.512C146.474 17.6613 146.464 17.7787 146.442 17.864C146.506 17.864 146.602 17.8533 146.73 17.832C146.88 17.8107 146.997 17.8 147.082 17.8C147.317 17.8 147.349 17.9067 147.178 18.12ZM144.426 17.256C144.682 16.232 144.768 15.4427 144.682 14.888C144.64 14.568 144.544 14.3653 144.394 14.28C144.266 14.1733 144.128 14.1947 143.978 14.344C143.85 14.472 143.765 14.6853 143.722 14.984C143.552 15.9013 143.786 16.6587 144.426 17.256ZM144.202 18.12C144.01 18.0347 143.808 17.9067 143.594 17.736C143.21 17.4587 142.869 17.064 142.57 16.552C142.293 16.0187 142.144 15.4747 142.122 14.92C141.12 15.7733 140.298 16.776 139.658 17.928C138.997 19.144 138.56 20.3813 138.346 21.64C138.133 22.8773 138.24 23.6667 138.666 24.008C139.136 24.392 139.797 24.2853 140.65 23.688C141.525 23.0907 142.336 22.088 143.082 20.68C143.552 19.8053 143.925 18.952 144.202 18.12ZM152.322 15.912C153.068 15.0373 153.943 14.2373 154.946 13.512C155.948 12.7653 156.727 12.4027 157.282 12.424C157.815 12.4453 158.21 12.7973 158.466 13.48C158.722 14.1413 158.743 14.8347 158.53 15.56C159.362 14.7493 160.226 14.0453 161.122 13.448C162.039 12.8507 162.754 12.5627 163.266 12.584C163.82 12.6053 164.172 13 164.322 13.768C164.471 14.536 164.375 15.3147 164.034 16.104C163.82 16.6373 163.33 17.5227 162.562 18.76C161.794 19.976 161.303 20.808 161.09 21.256C160.663 22.1733 160.524 22.952 160.674 23.592C160.823 24.232 161.196 24.5413 161.794 24.52C162.839 24.4987 164.172 23.0373 165.794 20.136C165.986 19.816 166.178 19.7947 166.37 20.072C166.455 20.1573 166.466 20.4347 166.402 20.904C166.359 21.352 166.252 21.7467 166.082 22.088C165.612 23.0267 164.919 23.8373 164.002 24.52C163.084 25.1813 162.178 25.512 161.282 25.512C159.916 25.512 158.978 25.032 158.466 24.072C157.975 23.112 158.039 21.9813 158.658 20.68C158.978 19.9547 159.479 19.048 160.162 17.96C160.844 16.872 161.388 15.9973 161.794 15.336C162.199 14.6747 162.338 14.3227 162.21 14.28C162.103 14.2373 161.922 14.2693 161.666 14.376C161.431 14.4613 161.047 14.696 160.514 15.08C160.002 15.464 159.426 15.976 158.786 16.616C156.78 18.6213 154.924 21.5333 153.218 25.352C153.004 25.7787 152.759 25.832 152.482 25.512C151.65 24.7867 151.628 23.4427 152.418 21.48C152.695 20.7547 153.218 19.784 153.986 18.568C154.754 17.3307 155.372 16.3067 155.842 15.496C156.332 14.6853 156.482 14.248 156.29 14.184C156.162 14.12 155.916 14.184 155.554 14.376C155.191 14.5467 154.711 14.8773 154.114 15.368C153.538 15.8373 152.93 16.424 152.29 17.128C150.69 18.856 149.122 21.5333 147.586 25.16C147.436 25.5013 147.234 25.5547 146.978 25.32C146.252 24.68 146.146 23.5813 146.658 22.024C146.999 21 147.671 19.528 148.674 17.608C149.698 15.6667 150.7 13.96 151.682 12.488C151.916 12.1253 152.14 12.1253 152.354 12.488C152.866 13.3413 152.855 14.4827 152.322 15.912ZM176.303 18.12C176.09 18.3547 175.802 18.4933 175.439 18.536C175.077 19.9867 174.426 21.384 173.487 22.728C172.549 24.0507 171.514 24.904 170.383 25.288C168.826 25.8 167.482 25.3307 166.351 23.88C165.69 22.8773 165.413 21.768 165.519 20.552C165.647 19.3147 166.095 18.024 166.863 16.68C167.503 15.528 168.282 14.568 169.199 13.8C170.117 13.0107 171.034 12.584 171.951 12.52C172.826 12.456 173.551 12.8187 174.127 13.608C174.234 13.7573 174.415 13.9707 174.671 14.248C174.927 14.504 175.119 14.7173 175.247 14.888C175.375 15.0587 175.482 15.3467 175.567 15.752C175.653 16.136 175.674 16.5947 175.631 17.128C175.61 17.2133 175.599 17.3413 175.599 17.512C175.599 17.6613 175.589 17.7787 175.567 17.864C175.631 17.864 175.727 17.8533 175.855 17.832C176.005 17.8107 176.122 17.8 176.207 17.8C176.442 17.8 176.474 17.9067 176.303 18.12ZM173.551 17.256C173.807 16.232 173.893 15.4427 173.807 14.888C173.765 14.568 173.669 14.3653 173.519 14.28C173.391 14.1733 173.253 14.1947 173.103 14.344C172.975 14.472 172.89 14.6853 172.847 14.984C172.677 15.9013 172.911 16.6587 173.551 17.256ZM173.327 18.12C173.135 18.0347 172.933 17.9067 172.719 17.736C172.335 17.4587 171.994 17.064 171.695 16.552C171.418 16.0187 171.269 15.4747 171.247 14.92C170.245 15.7733 169.423 16.776 168.783 17.928C168.122 19.144 167.685 20.3813 167.471 21.64C167.258 22.8773 167.365 23.6667 167.791 24.008C168.261 24.392 168.922 24.2853 169.775 23.688C170.65 23.0907 171.461 22.088 172.207 20.68C172.677 19.8053 173.05 18.952 173.327 18.12ZM178.439 20.904C178.439 20.52 178.471 20.168 178.535 19.848C178.599 19.5067 178.737 19.0587 178.951 18.504C179.164 17.928 179.356 17.4267 179.527 17C179.719 16.552 180.049 15.784 180.519 14.696C181.009 13.608 181.436 12.6267 181.799 11.752C181.948 11.4107 182.332 10.5787 182.951 9.256C183.569 7.93333 184.017 7.016 184.295 6.504C184.572 5.97067 184.967 5.256 185.479 4.36C186.012 3.464 186.513 2.792 186.983 2.344C187.452 1.87467 187.932 1.544 188.423 1.352C189.148 1.05333 189.767 1.27733 190.279 2.024C191.153 3.28267 191.367 4.60533 190.919 5.992C190.087 8.59467 187.804 10.6107 184.071 12.04C183.943 12.296 183.772 12.68 183.559 13.192C183.367 13.6827 183.228 14.0347 183.143 14.248C184.209 13.1813 185.287 12.648 186.375 12.648C187.313 12.648 187.975 13.064 188.359 13.896C188.764 14.7067 188.881 15.7093 188.711 16.904C188.561 18.0773 188.199 19.272 187.623 20.488C186.727 22.3653 185.852 23.656 184.999 24.36C184.167 25.064 183.281 25.416 182.343 25.416C181.191 25.416 180.241 25.032 179.495 24.264C178.769 23.4747 178.417 22.3547 178.439 20.904ZM181.479 18.44C181.159 19.0373 180.903 19.6347 180.711 20.232C180.54 20.8293 180.433 21.3733 180.391 21.864C180.348 22.3333 180.359 22.7493 180.423 23.112C180.487 23.4747 180.593 23.7627 180.743 23.976C180.913 24.168 181.116 24.2533 181.351 24.232C182.076 24.1893 182.833 23.72 183.623 22.824C184.412 21.9067 185.148 20.712 185.831 19.24C186.279 18.28 186.588 17.3733 186.759 16.52C186.929 15.6453 186.951 14.952 186.823 14.44C186.695 13.9067 186.417 13.64 185.991 13.64C185.372 13.6187 184.657 14.0453 183.847 14.92C183.036 15.7947 182.247 16.968 181.479 18.44ZM184.615 10.728C185.895 9.98133 186.972 9.04267 187.847 7.912C188.721 6.76 189.287 5.74667 189.543 4.872C189.82 3.99733 189.852 3.42133 189.639 3.144C189.489 2.93067 189.148 3.12267 188.615 3.72C188.103 4.296 187.473 5.224 186.727 6.504C185.98 7.784 185.276 9.192 184.615 10.728ZM185.575 10.696C185.617 10.696 185.287 11.0267 184.583 11.688C183.9 12.328 183.047 13.0213 182.023 13.768C181.02 14.4933 180.177 14.9307 179.495 15.08C178.471 15.208 177.82 15.176 177.543 14.984C177.393 14.8773 177.329 14.7813 177.351 14.696C177.393 14.5893 177.489 14.5147 177.639 14.472C179.879 13.8107 182.055 12.5733 184.167 10.76L184.519 10.728C184.775 10.728 185.009 10.728 185.223 10.728L185.575 10.696ZM199.852 14.6C200.322 13.7253 200.706 13.0747 201.004 12.648C201.303 12.2213 201.559 12.1573 201.772 12.456C202.05 12.776 202.199 13.2453 202.22 13.864C202.242 14.4613 202.082 15.176 201.74 16.008C201.548 16.4133 201.058 17.288 200.268 18.632C199.479 19.9547 198.946 20.9253 198.668 21.544C198.391 22.1413 198.21 22.6747 198.124 23.144C198.039 23.6133 198.06 23.9867 198.188 24.264C198.316 24.5413 198.562 24.6693 198.924 24.648C199.543 24.6267 200.247 24.1787 201.036 23.304C201.826 22.4293 202.519 21.3947 203.116 20.2C203.308 19.8587 203.479 19.848 203.628 20.168C203.842 20.6373 203.746 21.2987 203.34 22.152C202.892 23.0907 202.22 23.912 201.324 24.616C200.45 25.2987 199.586 25.6187 198.732 25.576C197.879 25.5333 197.228 25.2773 196.78 24.808C196.332 24.3387 196.108 23.72 196.108 22.952C194.807 24.616 193.474 25.448 192.108 25.448C191.127 25.448 190.402 25.064 189.932 24.296C189.484 23.5067 189.367 22.4933 189.58 21.256C189.794 20.0187 190.327 18.7707 191.18 17.512C192.396 15.7413 193.591 14.4293 194.764 13.576C195.959 12.7227 197.004 12.296 197.9 12.296C198.562 12.296 199.063 12.52 199.404 12.968C199.746 13.3947 199.895 13.9387 199.852 14.6ZM197.068 19.56C197.708 18.4293 198.188 17.4373 198.508 16.584C198.828 15.7307 198.978 15.0907 198.956 14.664C198.935 14.2373 198.764 14.0027 198.444 13.96C197.911 13.9173 197.132 14.3653 196.108 15.304C195.106 16.2427 194.178 17.4053 193.324 18.792C192.77 19.688 192.354 20.5733 192.076 21.448C191.799 22.3013 191.692 23.0053 191.756 23.56C191.82 24.1147 192.055 24.392 192.46 24.392C193.079 24.4133 193.783 23.9973 194.572 23.144C195.362 22.2693 196.194 21.0747 197.068 19.56Z" fill="#202020"/>
</svg>
